<svg width="27" height="27" viewBox="0 0 27 27" fill="none" xmlns="http://www.w3.org/2000/svg">
<path d="M11.3906 0H15.6094C16.3107 0 16.875 0.564258 16.875 1.26562V10.125H21.4998C22.4385 10.125 22.9078 11.2588 22.2434 11.9232L14.2225 19.9494C13.827 20.3449 13.1783 20.3449 12.7828 19.9494L4.75137 11.9232C4.08691 11.2588 4.55625 10.125 5.49492 10.125H10.125V1.26562C10.125 0.564258 10.6893 0 11.3906 0ZM27 19.8281V25.7344C27 26.4357 26.4357 27 25.7344 27H1.26562C0.564258 27 0 26.4357 0 25.7344V19.8281C0 19.1268 0.564258 18.5625 1.26562 18.5625H9.00176L11.5857 21.1465C12.6457 22.2064 14.3543 22.2064 15.4143 21.1465L17.9982 18.5625H25.7344C26.4357 18.5625 27 19.1268 27 19.8281ZM20.4609 24.4688C20.4609 23.8887 19.9863 23.4141 19.4062 23.4141C18.8262 23.4141 18.3516 23.8887 18.3516 24.4688C18.3516 25.0488 18.8262 25.5234 19.4062 25.5234C19.9863 25.5234 20.4609 25.0488 20.4609 24.4688ZM23.8359 24.4688C23.8359 23.8887 23.3613 23.4141 22.7812 23.4141C22.2012 23.4141 21.7266 23.8887 21.7266 24.4688C21.7266 25.0488 22.2012 25.5234 22.7812 25.5234C23.3613 25.5234 23.8359 25.0488 23.8359 24.4688Z"/>
</svg>
