<svg width="18" height="18" viewBox="0 0 18 18" fill="none" xmlns="http://www.w3.org/2000/svg">
<g clip-path="url(#clip0)">
<path d="M17.0628 12.4962V11.8308C17.0628 11.7909 17.0599 11.7511 17.0558 11.7117C17.1213 11.6724 17.1821 11.6289 17.2373 11.581C17.4819 11.3691 17.611 11.0894 17.6107 10.7721C17.6106 10.5006 17.5109 10.2418 17.3385 10.0419C17.4738 9.88087 17.5507 9.67584 17.5467 9.46229C17.5397 9.08294 17.2902 8.75958 16.9493 8.64042C17.0201 8.49264 17.0596 8.32725 17.0596 8.15277V7.9589C17.5647 7.92367 17.9649 7.50097 17.9649 6.98622C17.9649 6.91178 17.9492 5.14365 16.5879 3.46481C15.896 2.61157 14.9802 1.93583 13.8655 1.4563C12.5172 0.876324 10.8684 0.581865 8.96472 0.581177C6.56709 0.582002 4.58721 1.04653 3.08002 1.96156C2.95519 2.03737 2.91537 2.20002 2.9909 2.32495C3.06657 2.44989 3.22889 2.48993 3.35358 2.41412C4.77728 1.54987 6.66514 1.1112 8.96472 1.11038C10.7963 1.11107 12.3749 1.39094 13.6571 1.94257C14.6925 2.38797 15.5406 3.01239 16.1779 3.79849C17.4224 5.33312 17.4367 6.91948 17.4367 6.98622C17.4367 7.23224 17.237 7.43231 16.9915 7.43231H0.938234C0.692689 7.43231 0.493013 7.23224 0.493013 6.98622C0.493013 6.91976 0.501664 6.31254 0.803652 5.47801C1.13393 4.56491 1.6713 3.77083 2.40052 3.11793C2.50928 3.02051 2.51876 2.85319 2.42153 2.74435C2.3243 2.63538 2.15744 2.62602 2.04868 2.7233C-0.0113983 4.56794 -0.0351562 6.88839 -0.0351562 6.98622C-0.0351562 7.50097 0.365022 7.92367 0.869982 7.9589V8.15277C0.869982 8.32876 0.910357 8.49553 0.98218 8.64427C0.852953 8.69051 0.733888 8.76563 0.636384 8.86512C0.468568 9.03643 0.378617 9.26057 0.383012 9.496C0.38672 9.70006 0.459642 9.89091 0.584062 10.0423C0.411851 10.2422 0.312287 10.501 0.31215 10.7721C0.311875 11.0894 0.440965 11.3691 0.685548 11.581C0.744188 11.6318 0.809282 11.6776 0.87932 11.7188C0.875612 11.7559 0.87314 11.7932 0.87314 11.8308V12.4956C0.36667 12.5295 -0.0351562 12.9527 -0.0351562 13.4686C-0.0351562 15.6519 1.73763 17.428 3.9165 17.428H14.0132C16.1921 17.428 17.9649 15.6519 17.9649 13.4686C17.9649 12.9549 17.5664 12.5329 17.0628 12.4962ZM16.8919 11.1808C16.6491 11.3911 16.204 11.4787 15.7301 11.4092C15.3946 11.3599 15.218 11.2663 15.0311 11.1671C14.9881 11.1444 14.9447 11.1213 14.8994 11.0989L15.4993 10.4871C15.5741 10.4108 15.6783 10.367 15.7853 10.367H16.6445C16.7266 10.367 16.8073 10.3559 16.8859 10.3337C17.0092 10.4435 17.0825 10.6034 17.0827 10.7725C17.0827 10.9336 17.0185 11.0711 16.8919 11.1808ZM1.39815 7.96165H16.5316V8.15277C16.5316 8.35821 16.4284 8.53984 16.2715 8.64881C16.2671 8.65198 16.2625 8.65487 16.258 8.65776C16.2468 8.66519 16.2352 8.6722 16.2235 8.67881C16.2194 8.68115 16.2154 8.68349 16.2115 8.68569C16.1965 8.69367 16.1812 8.7011 16.1656 8.70784C16.1646 8.70826 16.1638 8.70867 16.163 8.70908C16.1455 8.71637 16.1277 8.72298 16.1094 8.72862C16.1074 8.72931 16.1053 8.72986 16.1032 8.73041C16.088 8.73509 16.0725 8.73908 16.0567 8.74238C16.0517 8.74348 16.0469 8.74444 16.042 8.74541C16.0284 8.74788 16.0147 8.75009 16.0008 8.75174C15.9956 8.75229 15.9905 8.75298 15.9853 8.75353C15.9667 8.75531 15.9481 8.75642 15.9291 8.75642H2.00048C1.66841 8.75642 1.39815 8.48562 1.39815 8.15291V7.96165ZM1.01335 9.23581C1.08518 9.1626 1.18419 9.1205 1.28527 9.1205H1.41353C1.58478 9.22507 1.78569 9.28548 2.00061 9.28548H15.9291C15.9526 9.28548 15.9758 9.28452 15.9989 9.28314C16.0063 9.28273 16.0136 9.28204 16.0208 9.28149C16.0371 9.28011 16.0533 9.27846 16.0693 9.2764C16.0772 9.27543 16.0851 9.27461 16.0929 9.27351C16.1135 9.27048 16.134 9.26704 16.1542 9.26291C16.1627 9.26112 16.1711 9.25906 16.1796 9.25713C16.1935 9.25397 16.2073 9.25067 16.2211 9.24695C16.2315 9.2442 16.2419 9.24117 16.2522 9.23814C16.2634 9.23484 16.2744 9.23113 16.2853 9.22755C16.2959 9.22411 16.3064 9.22067 16.3168 9.21696C16.3348 9.21021 16.3526 9.2032 16.3702 9.19577C16.3808 9.19122 16.3912 9.18627 16.4017 9.18145C16.4115 9.17691 16.4213 9.17224 16.4309 9.16742C16.4412 9.16219 16.4515 9.1571 16.4617 9.1516C16.4732 9.1454 16.4846 9.1388 16.496 9.13219C16.5029 9.1282 16.5099 9.12463 16.5167 9.1205H16.6608C16.8546 9.1205 17.0151 9.27832 17.0187 9.4722C17.0213 9.60732 16.9389 9.7357 16.809 9.79899H16.8088C16.756 9.82473 16.7006 9.83793 16.6445 9.83793H15.7852C15.5376 9.83793 15.296 9.93934 15.1224 10.1164L14.052 11.2081C13.7968 11.4685 13.3922 11.5037 13.0968 11.3035C13.0904 11.2991 13.0841 11.2947 13.0777 11.2901C13.0613 11.2783 13.0449 11.2659 13.0291 11.2524C13.0291 11.2523 13.029 11.2522 13.0289 11.2522L11.6424 10.0618C11.4741 9.91747 11.2595 9.83793 11.038 9.83793H1.26892C1.21454 9.83793 1.16181 9.82541 1.11196 9.80092H1.11182C0.99042 9.7412 0.913515 9.62053 0.911043 9.4861C0.909258 9.39391 0.94565 9.30502 1.01335 9.23581ZM0.840319 10.7724C0.840319 10.6044 0.912966 10.4453 1.03519 10.3355C1.11099 10.3564 1.18914 10.367 1.26892 10.367H11.038C11.1337 10.367 11.2263 10.4014 11.2989 10.4636L12.3953 11.405C12.3734 11.4059 12.3504 11.4063 12.3267 11.4063C11.9791 11.4063 11.821 11.3115 11.6211 11.1915C11.3945 11.0555 11.1377 10.9014 10.644 10.9014C10.1504 10.9014 9.89362 11.0555 9.66703 11.1915C9.46708 11.3115 9.30915 11.4063 8.96143 11.4063C8.61371 11.4063 8.45578 11.3115 8.25583 11.1915C8.02924 11.0555 7.77243 10.9014 7.27887 10.9014C6.78517 10.9014 6.52836 11.0555 6.30177 11.1915C6.10182 11.3115 5.94389 11.4063 5.59617 11.4063C5.24845 11.4063 5.09053 11.3115 4.89057 11.1915C4.66398 11.0555 4.40717 10.9014 3.91348 10.9014C3.3919 10.9014 3.13743 11.0365 2.89133 11.1671C2.70456 11.2662 2.5281 11.3599 2.1926 11.409C1.71868 11.4785 1.27359 11.391 1.03093 11.1808C0.904314 11.0711 0.840181 10.9336 0.840319 10.7724ZM14.0132 16.8989H3.9165C2.02877 16.8989 0.493013 15.36 0.493013 13.4686C0.493013 13.2226 0.692689 13.0225 0.938234 13.0225H12.7764C12.9223 13.0225 13.0405 12.904 13.0405 12.7579C13.0405 12.6118 12.9223 12.4933 12.7764 12.4933H1.40131V11.9139C1.55141 11.9452 1.71126 11.9618 1.87729 11.9618C2.00501 11.9618 2.1363 11.9521 2.26923 11.9327C2.69481 11.8703 2.93061 11.7452 3.13866 11.6348C3.35358 11.5208 3.52332 11.4306 3.91361 11.4306C4.26119 11.4306 4.41926 11.5254 4.61921 11.6454C4.8458 11.7814 5.10261 11.9355 5.59631 11.9355C6.08987 11.9355 6.34668 11.7814 6.57327 11.6454C6.77322 11.5254 6.93115 11.4306 7.27887 11.4306C7.62659 11.4306 7.78452 11.5254 7.98447 11.6454C8.21106 11.7814 8.46787 11.9355 8.96157 11.9355C9.45513 11.9355 9.71193 11.7814 9.93853 11.6454C10.1385 11.5254 10.2964 11.4306 10.6441 11.4306C10.9918 11.4306 11.1498 11.5254 11.3497 11.6454C11.5763 11.7814 11.8331 11.9355 12.3267 11.9355C12.5618 11.9355 12.759 11.9014 12.9485 11.8279C13.1272 11.9165 13.3218 11.9608 13.5164 11.9608C13.8488 11.9608 14.1805 11.8323 14.4289 11.579L14.5028 11.5037C14.6021 11.5388 14.6888 11.5843 14.7843 11.635C14.9924 11.7453 15.2282 11.8703 15.6538 11.9327C15.7867 11.9523 15.918 11.9618 16.0457 11.9618C16.2165 11.9618 16.3808 11.9443 16.5347 11.9111V12.4933H14.0053C13.8594 12.4933 13.7412 12.6118 13.7412 12.7579C13.7412 12.904 13.8594 13.0225 14.0053 13.0225H16.9915C17.237 13.0225 17.4368 13.2226 17.4368 13.4686C17.4367 15.36 15.901 16.8989 14.0132 16.8989Z" fill="#C2CFE0"/>
</g>
<defs>
<clipPath id="clip0">
<rect width="18" height="18" fill="white"/>
</clipPath>
</defs>
</svg>
