<svg width="19" height="19" viewBox="0 0 19 19" fill="none" xmlns="http://www.w3.org/2000/svg">
<path d="M18.6876 16.6127H17.6338V12.9575C17.6338 12.1394 16.9682 11.4738 16.1501 11.4738H15.6926V7.66295C15.6926 6.93067 15.0968 6.33488 14.3646 6.33488H10.6625V3.27127C10.6625 3.09875 10.5226 2.95885 10.3501 2.95885H9.81239V2.49216C10.2256 2.35972 10.5256 1.972 10.5256 1.51541C10.5256 1.03673 9.91637 0.338706 9.72967 0.1362C9.67052 0.072001 9.58724 0.0355225 9.5 0.0355225C9.41272 0.0355225 9.32948 0.072001 9.27033 0.1362C9.08363 0.338706 8.47445 1.03673 8.47445 1.51541C8.47445 1.97196 8.77444 2.35968 9.18761 2.49216V2.95889H8.64994C8.47741 2.95889 8.33751 3.09875 8.33751 3.27131V6.33491H4.63541C3.90313 6.33491 3.30734 6.9307 3.30734 7.66298V10.4116C3.30734 10.5842 3.4472 10.7241 3.61972 10.7241C3.79224 10.7241 3.93215 10.5842 3.93215 10.4116V7.66298C3.93215 7.27523 4.24765 6.95972 4.63541 6.95972H14.3646C14.7523 6.95972 15.0678 7.27523 15.0678 7.66298V11.4738H3.6198H2.84989C2.0317 11.4738 1.36614 12.1394 1.36614 12.9576V15.5212C1.36614 15.6937 1.50601 15.8336 1.67853 15.8336C1.85105 15.8336 1.99096 15.6937 1.99096 15.5212V12.9576C1.99096 12.4839 2.37626 12.0986 2.84989 12.0986H3.61972H15.3802H16.15C16.6237 12.0986 17.0089 12.4839 17.0089 12.9576V16.6127H1.67853H0.312424C0.139902 16.6127 0 16.7526 0 16.9251C0 18.0497 0.914895 18.9646 2.03942 18.9646H16.9606C18.0851 18.9646 19 18.0497 19 16.9251C19 16.7526 18.8601 16.6127 18.6876 16.6127ZM9.09926 1.51537C9.09926 1.40786 9.27233 1.11956 9.5 0.830108C9.72767 1.11956 9.90074 1.40786 9.90074 1.51537C9.90074 1.73636 9.72095 1.91611 9.5 1.91611C9.27901 1.91611 9.09926 1.73636 9.09926 1.51537ZM10.0376 6.33488H8.96232V3.58366H10.0376V6.33488ZM16.9606 18.3397H2.03942C1.3667 18.3397 0.802156 17.8677 0.659582 17.2375H1.67857H17.3214H18.3404C18.1978 17.8677 17.6333 18.3397 16.9606 18.3397Z" fill="#C2CFE0"/>
<path d="M14.0169 7.87209C13.5636 7.86471 13.2522 8.17142 13.0018 8.41838C12.7751 8.64193 12.6248 8.77689 12.4628 8.77251C12.3105 8.76806 12.1942 8.63617 12.0171 8.42142C11.8096 8.16971 11.5512 7.85647 11.108 7.84348C10.6704 7.83045 10.3821 8.11649 10.1278 8.36861C9.89255 8.60188 9.73565 8.74349 9.54079 8.74372C9.54068 8.74372 9.54057 8.74372 9.54046 8.74372C9.34823 8.74372 9.19623 8.60181 8.96894 8.36813C8.72936 8.12187 8.43156 7.8158 7.97919 7.8158C7.97637 7.8158 7.97344 7.8158 7.97062 7.81583C7.49841 7.81988 7.19444 8.15268 6.95019 8.42012C6.73135 8.65978 6.58618 8.80539 6.41763 8.80539C6.41734 8.80539 6.41708 8.80539 6.41682 8.80539C6.24801 8.80495 6.10625 8.65907 5.8928 8.41897C5.66049 8.15761 5.37167 7.83257 4.92235 7.83257C4.92064 7.83257 4.9189 7.83257 4.91715 7.83257C4.74463 7.83353 4.60555 7.97418 4.60651 8.14674C4.60748 8.3187 4.74712 8.45738 4.91886 8.45738C4.91994 8.45742 4.92101 8.45742 4.92213 8.45742C5.07966 8.45742 5.21767 8.59988 5.42585 8.83408C5.66142 9.09911 5.95451 9.42894 6.41515 9.43028C6.41604 9.43028 6.41689 9.43028 6.41782 9.43028C6.87397 9.43028 7.17207 9.10394 7.41164 8.84157C7.63846 8.59324 7.78964 8.44231 7.97604 8.44068C8.15728 8.43998 8.30112 8.57773 8.52118 8.80391C8.76599 9.05551 9.07054 9.36857 9.54049 9.36857C9.54079 9.36857 9.54116 9.36857 9.54146 9.36857C10.0074 9.36816 10.3182 9.05996 10.5679 8.81233C10.7832 8.59877 10.9265 8.46799 11.0818 8.46799C11.0845 8.46799 11.0872 8.46803 11.0899 8.46807C11.242 8.47252 11.3582 8.60433 11.5352 8.81901C11.7429 9.07076 12.0012 9.38408 12.4446 9.3971C12.8871 9.41113 13.1937 9.10691 13.4407 8.86332C13.674 8.6332 13.8283 8.49278 14.006 8.4969C14.1801 8.49928 14.3209 8.36257 14.3239 8.19004C14.3268 8.01741 14.1895 7.87513 14.0169 7.87209Z" fill="#C2CFE0"/>
<path d="M16.1297 13.0445C15.663 13.03 15.3527 13.3388 15.0787 13.6105C14.8529 13.8344 14.6579 14.0279 14.4182 14.0295C14.2322 14.0254 14.0989 13.8869 13.8974 13.6616C13.6672 13.4044 13.3807 13.0843 12.8978 13.0758C12.8917 13.0757 12.8856 13.0756 12.8795 13.0756C12.406 13.0756 12.0749 13.402 11.8082 13.665C11.5895 13.8807 11.4008 14.0663 11.1969 14.0609C11.0176 14.0557 10.8865 13.9075 10.6875 13.6661C10.4641 13.3953 10.1861 13.0582 9.7146 13.0444C9.24839 13.0299 8.93764 13.3387 8.66366 13.6104C8.43711 13.8351 8.24143 14.0291 8.00066 14.0294C8.00055 14.0294 8.00037 14.0294 8.00026 14.0294C7.77838 14.0294 7.60797 13.8707 7.35381 13.6096C7.09553 13.3441 6.7745 13.0142 6.29189 13.0142C6.28888 13.0142 6.2858 13.0142 6.28283 13.0142C5.779 13.0185 5.45121 13.3774 5.18777 13.6658C4.94289 13.934 4.77987 14.0969 4.58333 14.0969C4.583 14.0969 4.58267 14.0969 4.58233 14.0969C4.38536 14.0963 4.22608 13.933 3.9871 13.6642C3.73587 13.3815 3.42422 13.0312 2.94169 13.0325C2.76917 13.0334 2.63008 13.1741 2.63105 13.3466C2.63201 13.5186 2.77165 13.6573 2.9434 13.6573C2.9441 13.6573 2.9447 13.6573 2.94529 13.6573C3.13165 13.6547 3.28618 13.8161 3.52015 14.0793C3.77398 14.3649 4.08989 14.7204 4.58063 14.7218C4.58163 14.7218 4.58256 14.7218 4.58359 14.7218C5.06958 14.7217 5.37751 14.3847 5.64919 14.0872C5.90272 13.8096 6.07227 13.6409 6.28821 13.639C6.28936 13.639 6.29055 13.639 6.29167 13.639C6.4958 13.639 6.66031 13.7928 6.90601 14.0454C7.16997 14.3167 7.49846 14.6543 8.00022 14.6543C8.00055 14.6543 8.00089 14.6543 8.00122 14.6543C8.49889 14.6538 8.83418 14.3213 9.10359 14.0542C9.34888 13.8109 9.51009 13.6641 9.69634 13.669C9.87543 13.6742 10.0065 13.8224 10.2054 14.0636C10.4288 14.3345 10.7069 14.6717 11.1786 14.6855C11.6497 14.7001 11.9668 14.3862 12.2469 14.1099C12.4718 13.8881 12.6654 13.6953 12.8867 13.7005C13.0868 13.7039 13.2242 13.8463 13.4317 14.0782C13.6585 14.3317 13.9407 14.6471 14.4112 14.6542C14.4129 14.6542 14.4146 14.6542 14.4162 14.6542C14.9139 14.6538 15.2492 14.3213 15.5186 14.0541C15.7639 13.8109 15.9257 13.6646 16.1114 13.6689C16.2841 13.6742 16.4277 13.5383 16.4328 13.3658C16.4378 13.1934 16.3021 13.0495 16.1297 13.0445Z" fill="#C2CFE0"/>
</svg>
