<svg width="17" height="17" viewBox="0 0 17 17" fill="none" xmlns="http://www.w3.org/2000/svg">
<g clip-path="url(#clip0)">
<path d="M16.1278 8.04654C15.8288 7.26849 15.5012 6.40924 14.9754 5.75107C14.5778 5.25354 13.8324 4.82267 13.1725 4.92344C13.164 4.92474 13.1088 4.93679 13.013 4.95821C13.0369 5.12332 13.049 5.29075 13.049 5.45996C13.049 5.92966 12.9568 6.38589 12.7749 6.81595C12.5994 7.23082 12.3485 7.60316 12.029 7.92269C11.7095 8.24218 11.3371 8.49317 10.9222 8.66863C10.4922 8.85053 10.0359 8.94276 9.56625 8.94276C9.09654 8.94276 8.64034 8.85053 8.21027 8.66863C7.7954 8.49315 7.42307 8.24218 7.10354 7.92269C6.78404 7.60318 6.53305 7.23082 6.35759 6.81595C6.31445 6.71395 6.27653 6.61043 6.24352 6.50566C3.50668 7.13346 0.969114 7.71657 0.820928 7.75108C0.690314 7.78148 0.531319 7.79962 0.414091 7.862C0.315205 7.91462 0.244324 7.99874 0.244324 8.1482V14.9798C0.244324 15.249 0.528939 15.497 0.879641 15.5335L3.41917 15.7976L14.8418 16.9865C15.8922 17.096 16.745 16.5296 16.745 15.7212C16.745 15.2109 16.4053 14.7277 15.8907 14.4117C16.4053 14.2037 16.745 13.7902 16.745 13.2806C16.745 12.7711 16.4053 12.2879 15.8916 11.9729C17.4099 11.3544 16.5522 9.15078 16.1278 8.04654ZM12.7836 15.6617L1.58639 14.4958V13.3766L12.7836 14.5416C13.834 14.6512 14.6866 14.9901 14.6866 15.2991C14.6866 15.6082 13.834 15.7713 12.7836 15.6617ZM12.7836 13.431L1.58639 12.265V11.1449L12.7836 12.3117C13.834 12.4213 14.6866 12.76 14.6866 13.0692C14.6866 13.3783 13.834 13.5405 12.7836 13.431ZM12.7836 11.2002L1.58639 10.0351V8.91497L12.7836 10.0801C13.834 10.1896 14.6866 10.5293 14.6866 10.8383C14.6866 11.1484 13.834 11.3097 12.7836 11.2002Z" fill="#C2CFE0"/>
<path d="M7.15713 5.45993C7.15713 5.74209 7.20582 6.01286 7.29493 6.26449C7.62609 7.19933 8.51788 7.86904 9.56621 7.86904C10.8967 7.86904 11.9753 6.79046 11.9753 5.45995C11.9753 5.37099 11.9703 5.28322 11.9609 5.19675C11.8298 3.99007 10.8078 3.05085 9.56621 3.05085C9.4394 3.05085 9.31493 3.06071 9.19342 3.07959C9.11098 2.91091 9.01961 2.74607 8.92113 2.58534C8.82187 2.42332 8.71547 2.26549 8.60413 2.112C8.46766 1.92389 8.32379 1.74232 8.17625 1.56779C7.90191 1.24327 7.60412 0.936069 7.27681 0.664498C6.99019 0.426659 6.68542 0.197553 6.34295 0.0460023C6.14928 -0.0397135 5.92722 -0.0124061 5.81133 0.185402C5.71343 0.352539 5.75695 0.631285 5.95073 0.717037C6.11147 0.788169 6.2642 0.876801 6.40961 0.975348C6.45163 1.00382 6.4933 1.03277 6.5343 1.06269C6.54924 1.07361 6.6028 1.11444 6.6169 1.12484C6.67901 1.17401 6.74041 1.22407 6.80038 1.27587C6.95855 1.41255 7.11065 1.55632 7.25589 1.70669C7.4088 1.865 7.5558 2.02911 7.69513 2.19953C7.73471 2.24795 7.77399 2.29664 7.81247 2.34598C7.81256 2.34608 7.81263 2.34617 7.81274 2.34628C7.81411 2.34812 7.81563 2.35013 7.81733 2.35235C7.83353 2.37375 7.84976 2.39513 7.86578 2.41668C7.86635 2.41748 7.86692 2.41829 7.86753 2.41908C7.93075 2.50429 7.99272 2.59045 8.05235 2.67825C8.094 2.73957 8.13479 2.80151 8.17473 2.86399C8.25261 2.98589 8.3269 3.11008 8.39607 3.23713C8.41242 3.26718 8.42849 3.29737 8.4444 3.32765C7.67897 3.73117 7.15713 4.53454 7.15713 5.45993Z" fill="#C2CFE0"/>
</g>
<defs>
<clipPath id="clip0">
<rect width="17" height="17" fill="white"/>
</clipPath>
</defs>
</svg>
