<svg width="17" height="17" viewBox="0 0 17 17" fill="none" xmlns="http://www.w3.org/2000/svg">
<path d="M15.5059 1.99219H15.0078V1.49414C15.0078 0.670272 14.3375 0 13.5137 0H2.98828C2.16441 0 1.49414 0.670272 1.49414 1.49414V1.99219C0.670272 1.99219 0 2.66246 0 3.48633C0 4.3102 0.670272 4.98047 1.49414 4.98047V7.03906C0.670272 7.03906 0 7.70933 0 8.5332C0 9.35707 0.670272 10.0273 1.49414 10.0273V12.0195C0.670272 12.0195 0 12.6898 0 13.5137C0 14.3375 0.670272 15.0078 1.49414 15.0078V15.5059C1.49414 16.3297 2.16441 17 2.98828 17H13.5137C14.3375 17 15.0078 16.3297 15.0078 15.5059V15.0078H15.5059C16.3297 15.0078 17 14.3375 17 13.5137V3.48633C17 2.66246 16.3297 1.99219 15.5059 1.99219ZM0.996094 3.48633C0.996094 3.2117 1.21952 2.98828 1.49414 2.98828H3.48633C3.76095 2.98828 3.98438 3.2117 3.98438 3.48633C3.98438 3.76095 3.76095 3.98438 3.48633 3.98438H1.49414C1.21952 3.98438 0.996094 3.76095 0.996094 3.48633ZM0.996094 8.5332C0.996094 8.25858 1.21952 8.03516 1.49414 8.03516H3.48633C3.76095 8.03516 3.98438 8.25858 3.98438 8.5332C3.98438 8.80783 3.76095 9.03125 3.48633 9.03125C3.32655 9.03125 2.0155 9.03125 1.49414 9.03125C1.21952 9.03125 0.996094 8.80783 0.996094 8.5332ZM1.49414 14.0117C1.21952 14.0117 0.996094 13.7883 0.996094 13.5137C0.996094 13.239 1.21952 13.0156 1.49414 13.0156H3.48633C3.76095 13.0156 3.98438 13.239 3.98438 13.5137C3.98438 13.7883 3.76095 14.0117 3.48633 14.0117H1.49414ZM14.0117 15.5059C14.0117 15.7805 13.7883 16.0039 13.5137 16.0039H2.98828C2.71366 16.0039 2.49023 15.7805 2.49023 15.5059V15.0078H3.48633C4.3102 15.0078 4.98047 14.3375 4.98047 13.5137C4.98047 12.6898 4.3102 12.0195 3.48633 12.0195H2.49023V10.0273H3.48633C4.3102 10.0273 4.98047 9.35707 4.98047 8.5332C4.98047 7.70933 4.3102 7.03906 3.48633 7.03906H2.49023V4.98047H3.48633C4.3102 4.98047 4.98047 4.3102 4.98047 3.48633C4.98047 2.66246 4.3102 1.99219 3.48633 1.99219H2.49023V1.49414C2.49023 1.21952 2.71366 0.996094 2.98828 0.996094H13.5137C13.7883 0.996094 14.0117 1.21952 14.0117 1.49414V15.5059ZM16.0039 13.5137C16.0039 13.7883 15.7805 14.0117 15.5059 14.0117H15.0078V12.0195H16.0039V13.5137ZM16.0039 11.0234H15.0078V9.03125H16.0039V11.0234ZM16.0039 8.03516H15.0078V5.97656H16.0039V8.03516ZM16.0039 4.98047H15.0078V2.98828H15.5059C15.7805 2.98828 16.0039 3.2117 16.0039 3.48633V4.98047Z" fill="#C2CFE0"/>
<path d="M10.5254 6.97266C11.3493 6.97266 12.0195 6.30238 12.0195 5.47852V4.48242C12.0195 3.65855 11.3493 2.98828 10.5254 2.98828C8.60303 2.98828 7.03906 4.55225 7.03906 6.47461V10.5254C7.03906 12.4478 8.60303 14.0117 10.5254 14.0117C11.3493 14.0117 12.0195 13.3414 12.0195 12.5176V11.5215C12.0195 10.6976 11.3493 10.0273 10.5254 10.0273C10.2508 10.0273 10.0273 9.80392 10.0273 9.5293V7.4707C10.0273 7.19608 10.2508 6.97266 10.5254 6.97266ZM10.5254 11.0234C10.8 11.0234 11.0234 11.2469 11.0234 11.5215V12.5176C11.0234 12.7922 10.8 13.0156 10.5254 13.0156C9.15228 13.0156 8.03516 11.8985 8.03516 10.5254V6.47461C8.03516 5.10149 9.15228 3.98437 10.5254 3.98437C10.8 3.98437 11.0234 4.2078 11.0234 4.48242V5.47852C11.0234 5.75314 10.8 5.97656 10.5254 5.97656C9.70152 5.97656 9.03125 6.64683 9.03125 7.4707V9.5293C9.03125 10.3532 9.70152 11.0234 10.5254 11.0234Z" fill="#C2CFE0"/>
</svg>
