<svg width="18" height="18" viewBox="0 0 18 18" fill="none" xmlns="http://www.w3.org/2000/svg">
<path d="M15.448 8.28606C15.448 7.76524 15.3184 7.27339 15.0899 6.83787C15.0187 6.87857 14.9467 6.91965 14.872 6.9627L14.0694 7.42286C14.1993 7.68542 14.2737 7.97733 14.2737 8.28606C14.2737 8.75092 14.1078 9.17782 13.8315 9.52099C14.4603 9.8215 14.8489 10.2265 14.8489 10.6741C14.8489 11.5952 13.2117 12.3426 11.1922 12.3426C9.40282 12.3426 7.91668 11.7561 7.60012 10.9813C7.39743 11.0768 7.17479 11.1343 6.93727 11.1343C6.56789 11.1343 6.23215 10.9997 5.96255 10.7837C5.60099 11.1758 5.0884 11.4227 4.5175 11.4227C3.42304 11.4227 2.53558 10.5204 2.53558 9.40869C2.53558 8.39445 3.27435 7.55825 4.2342 7.41817C4.17863 7.23621 4.14655 7.04604 4.14655 6.84844C4.14655 5.65655 5.22848 4.69044 6.56319 4.69044C6.61836 4.69044 6.67197 4.69475 6.72636 4.69827C6.58628 4.46623 6.49941 4.20093 6.49941 3.91411C6.49941 3.25673 6.92083 2.69366 7.51991 2.45497C7.50973 2.02454 7.58056 1.59764 7.72182 1.19421C6.43171 1.39104 5.42608 2.43266 5.33256 3.71807C4.02759 4.16141 3.0744 5.28873 2.98009 6.62931C2.01046 7.18026 1.36169 8.23363 1.36169 9.4083C1.36169 10.8569 2.32389 12.0808 3.6363 12.4671L4.22833 16.2149C4.37976 17.1755 5.15061 17.8834 6.09794 17.9804C6.17072 17.9882 6.24154 18 6.31628 18H11.4113C11.4853 18 11.5565 17.9882 11.6297 17.9804C12.577 17.8834 13.3483 17.1755 13.4993 16.2157L13.9974 13.0305C13.999 13.0301 14.0005 13.0293 14.0021 13.029C15.2496 12.5312 16.0228 11.6888 16.0228 10.6737C16.0228 10.302 15.9136 9.69981 15.331 9.13165C15.4084 8.85931 15.448 8.57562 15.448 8.28606ZM5.85494 16.3698L5.277 12.4976C5.56069 12.4256 5.83421 12.318 6.08776 12.1712C6.13002 12.1849 6.17502 12.1912 6.21807 12.2033C6.22198 12.2041 6.22628 12.2049 6.2302 12.2057L6.97131 17.217L6.84492 17.2178C6.35033 17.2209 5.92812 16.8593 5.85494 16.3698ZM8.37489 17.217H8.37293V13.0231C8.37332 13.0235 8.37411 13.0235 8.37489 13.0239C8.68636 13.146 9.01583 13.2422 9.35313 13.3162C9.38561 13.3232 9.41808 13.3314 9.45095 13.3385C9.48304 13.3455 9.51513 13.3494 9.54682 13.3557V17.217H8.37489ZM10.7551 17.217L11.317 13.4418L12.3117 13.304L11.8668 16.3667C11.7948 16.8605 11.3691 17.2244 10.8698 17.2186L10.7551 17.217Z" fill="#C2CFE0"/>
<path d="M10.1205 5.46014C10.7888 5.56227 11.4548 5.73522 12.0597 5.99817C12.4405 6.16408 12.7515 6.39651 13.0301 6.66612C14.1453 6.02596 15.4182 5.2958 15.455 5.27389C16.5862 4.62081 16.9736 3.17458 16.3209 2.04413C15.8831 1.2858 15.0888 0.862025 14.2717 0.862025C13.873 0.862025 13.4696 0.962979 13.0994 1.17467C12.6608 0.421034 11.8688 0 11.0541 0C10.6538 0 10.2473 0.101737 9.87474 0.316558C8.74467 0.968849 8.3569 2.41508 9.00958 3.54592C9.02797 3.5784 9.56366 4.50147 10.1205 5.46014Z" fill="#C2CFE0"/>
</svg>
