<svg width="20" height="15" viewBox="0 0 20 15" xmlns="http://www.w3.org/2000/svg">
<path d="M16.25 14.6923H12.9688C12.7109 14.6923 12.5 14.4857 12.5 14.2332V12.7027C12.5 12.4502 12.7109 12.2436 12.9688 12.2436H16.25C16.9414 12.2436 17.5 11.6964 17.5 11.0192V3.67307C17.5 2.99585 16.9414 2.44871 16.25 2.44871H12.9688C12.7109 2.44871 12.5 2.2421 12.5 1.98958V0.459134C12.5 0.20661 12.7109 0 12.9688 0H16.25C18.3203 0 20 1.64523 20 3.67307V11.0192C20 13.0471 18.3203 14.6923 16.25 14.6923ZM14.4141 7.00179L7.85156 0.573917C7.26562 0 6.25 0.401742 6.25 1.22436V4.89743H0.9375C0.417969 4.89743 0 5.30682 0 5.8157V9.48877C0 9.99764 0.417969 10.407 0.9375 10.407H6.25V14.0801C6.25 14.9027 7.26562 15.3045 7.85156 14.7305L14.4141 8.30267C14.7773 7.94302 14.7773 7.36145 14.4141 7.00179Z"/>
</svg>