<svg width="17" height="17" viewBox="0 0 17 17" fill="none" xmlns="http://www.w3.org/2000/svg">
<path d="M16.9447 6.19441C16.9447 4.02122 15.1773 2.25322 13.0049 2.25322C12.9105 2.25322 12.8152 2.25676 12.7194 2.26392C11.7846 0.858414 10.2009 0 8.50001 0C6.79921 0 5.21546 0.858586 4.28063 2.26392C4.18487 2.25676 4.08957 2.25322 3.99518 2.25322C1.82273 2.25322 0.0553589 4.02122 0.0553589 6.19441C0.0553589 8.177 1.52663 9.82154 3.43424 10.0948V15.5415C3.43424 16.3458 4.08848 17 4.89269 17H12.1073C12.9116 17 13.5658 16.3457 13.5658 15.5415V10.0948C15.4734 9.82154 16.9447 8.17694 16.9447 6.19441ZM12.1073 15.8781H4.89275C4.71038 15.8781 4.55618 15.7239 4.55618 15.5414V10.0953C5.10579 10.0175 5.62758 9.82503 6.09826 9.52578C6.82021 9.91627 7.64131 10.1354 8.50001 10.1354C9.35871 10.1354 10.1797 9.91627 10.9017 9.52584C11.3725 9.82503 11.8943 10.0175 12.4439 10.0953V15.5414C12.4439 15.7239 12.2897 15.8781 12.1073 15.8781ZM13.0049 9.01349C12.6273 9.01349 12.2623 8.93971 11.9231 8.79793C12.6058 8.17208 13.1218 7.3586 13.381 6.42371C13.4637 6.12515 13.2887 5.816 12.9902 5.73324C12.6916 5.65053 12.3825 5.8255 12.2997 6.12401C11.8283 7.82532 10.2658 9.01349 8.50001 9.01349C6.73424 9.01349 5.17179 7.82532 4.70031 6.12401C4.6176 5.82545 4.30862 5.65053 4.00983 5.73324C3.71127 5.81595 3.53635 6.12515 3.61906 6.42371C3.87813 7.3586 4.39425 8.17213 5.07694 8.79793C4.73774 8.93971 4.37273 9.01349 3.99518 9.01349C2.44137 9.01349 1.1773 7.74885 1.1773 6.19441C1.1773 4.63991 2.44143 3.37516 3.99518 3.37516C4.15224 3.37516 4.31394 3.38924 4.47582 3.41694C4.70947 3.45678 4.94346 3.34557 5.05965 3.1387C5.75826 1.89473 7.07653 1.12194 8.49995 1.12194C9.92337 1.12194 11.2416 1.89478 11.9404 3.13876C12.0565 3.34562 12.2904 3.45684 12.5242 3.41694C12.6861 3.38924 12.8478 3.37516 13.0048 3.37516C14.5585 3.37516 15.8226 4.63991 15.8226 6.19441C15.8228 7.74885 14.5586 9.01349 13.0049 9.01349Z" fill="#C2CFE0"/>
</svg>
